<svg xmlns="http://www.w3.org/2000/svg" width="1600" height="420" viewBox="0 0 1600 420" role="img" aria-label="ipxray banner">
  <rect width="1600" height="420" fill="#0b1020"/>
  <path d="M0 322 C220 250 420 360 640 292 C860 224 1010 122 1250 172 C1420 208 1510 142 1600 112 L1600 420 L0 420 Z" fill="#14213d"/>
  <path d="M0 352 C250 300 390 382 630 336 C850 294 1030 208 1242 240 C1430 268 1515 220 1600 194 L1600 420 L0 420 Z" fill="#1f7a8c" opacity="0.65"/>
  <g fill="none" stroke="#e5e7eb" stroke-opacity="0.18">
    <path d="M140 96h1320"/>
    <path d="M140 158h1320"/>
    <path d="M140 220h1320"/>
    <path d="M140 282h1320"/>
    <path d="M240 62v272"/>
    <path d="M460 62v272"/>
    <path d="M680 62v272"/>
    <path d="M900 62v272"/>
    <path d="M1120 62v272"/>
    <path d="M1340 62v272"/>
  </g>
  <g font-family="Inter, ui-sans-serif, system-ui, -apple-system, BlinkMacSystemFont, Segoe UI, sans-serif">
    <text x="140" y="174" fill="#f8fafc" font-size="78" font-weight="700" letter-spacing="0">ipxray</text>
    <text x="144" y="230" fill="#cbd5e1" font-size="30">offline IP intelligence resolver with provenance</text>
    <text x="144" y="284" fill="#67e8f9" font-size="22">IP · CIDR · ASN · routing · special-use · geo · Tor · crawler · satellite · infrastructure context</text>
  </g>
  <g transform="translate(1260 88)" fill="none" stroke="#67e8f9" stroke-width="5" stroke-linecap="round" stroke-linejoin="round" opacity="0.9">
    <circle cx="92" cy="92" r="62"/>
    <path d="M138 138l58 58"/>
    <path d="M57 92h70"/>
    <path d="M92 57v70"/>
  </g>
</svg>
